<svg width="431" height="456" viewBox="0 0 431 456" fill="none" xmlns="http://www.w3.org/2000/svg">
<path d="M296.312 249.375C296.312 253.603 295.128 257.735 292.908 261.25C290.688 264.765 287.532 267.505 283.841 269.123C280.149 270.741 276.087 271.164 272.168 270.339C268.249 269.515 264.649 267.479 261.824 264.489C258.998 261.5 257.074 257.691 256.294 253.545C255.515 249.399 255.915 245.101 257.444 241.195C258.973 237.289 261.563 233.951 264.885 231.602C268.208 229.254 272.114 228 276.109 228C281.468 228 286.606 230.252 290.395 234.261C294.184 238.269 296.312 243.706 296.312 249.375ZM154.891 228C150.895 228 146.989 229.254 143.666 231.602C140.344 233.951 137.754 237.289 136.225 241.195C134.696 245.101 134.296 249.399 135.076 253.545C135.855 257.691 137.779 261.5 140.605 264.489C143.43 267.479 147.03 269.515 150.949 270.339C154.868 271.164 158.93 270.741 162.622 269.123C166.314 267.505 169.469 264.765 171.689 261.25C173.909 257.735 175.094 253.603 175.094 249.375C175.094 243.706 172.965 238.269 169.176 234.261C165.388 230.252 160.249 228 154.891 228ZM404.062 114V256.5C404.018 290.5 391.232 323.093 368.509 347.134C345.786 371.176 314.979 384.703 282.844 384.75H148.156C116.021 384.703 85.2141 371.176 62.4908 347.134C39.7676 323.093 26.982 290.5 26.9375 256.5V114C26.9117 100.107 31.6826 86.6822 40.3536 76.2489C49.0247 65.8156 60.9989 59.092 74.0256 57.3419C87.0524 55.5917 100.235 58.9355 111.095 66.7448C121.956 74.554 129.747 86.2911 133.004 99.75H297.996C301.253 86.2911 309.044 74.554 319.905 66.7448C330.765 58.9355 343.948 55.5917 356.974 57.3419C370.001 59.092 381.975 65.8156 390.646 76.2489C399.317 86.6822 404.088 100.107 404.062 114ZM336.719 242.25C336.719 227.133 331.043 212.634 320.939 201.945C310.836 191.255 297.132 185.25 282.844 185.25H148.156C133.868 185.25 120.164 191.255 110.061 201.945C99.9573 212.634 94.2812 227.133 94.2812 242.25V256.5C94.2812 271.617 99.9573 286.115 110.061 296.805C120.164 307.495 133.868 313.5 148.156 313.5H282.844C297.132 313.5 310.836 307.495 320.939 296.805C331.043 286.115 336.719 271.617 336.719 256.5V242.25Z" fill="black"/>
<circle cx="215.5" cy="151.5" r="21.5" fill="#F979F4"/>
<path d="M229 271.5C229 275.09 223.18 282.5 216 282.5C208.82 282.5 203 275.09 203 271.5C203 267.91 208.82 265 216 265C223.18 265 229 267.91 229 271.5Z" fill="#F979F4"/>
</svg>
