<svg width="800" height="820" viewBox="0 0 800 820" fill="none" xmlns="http://www.w3.org/2000/svg">
<g opacity="0.2">
<path d="M2130.14 321.156C2130.57 431.612 2041.37 521.498 1930.91 521.923L194.522 528.598C183.476 528.64 174.488 519.72 174.445 508.675L174.399 496.675C173.975 386.219 263.173 296.332 373.629 295.908L2110.02 289.233C2121.07 289.19 2130.05 298.11 2130.1 309.156L2130.14 321.156Z" fill="#3E4B7D"/>
<path d="M2170.1 30.9998C2170.53 141.456 2081.33 231.343 1970.87 231.767L430.474 237.689C419.428 237.731 410.44 228.811 410.397 217.766L410.355 206.766C409.93 96.3096 499.129 6.42303 609.585 5.99842L2149.98 0.076881C2161.03 0.03442 2170.02 8.95423 2170.06 19.9999L2170.1 30.9998Z" fill="#3E4B7D"/>
<path d="M1894.05 612.065C1894.48 722.521 1805.28 812.408 1694.82 812.833L23.1175 819.259C12.0719 819.301 3.0832 810.381 3.04074 799.336L2.9968 787.907C2.57219 677.451 91.7704 587.565 202.227 587.14L1873.93 580.714C1884.98 580.671 1893.96 589.591 1894.01 600.637L1894.05 612.065Z" fill="#3E4B7D"/>
</g>
</svg>
